<?xml version="1.0"?>
<svg xmlns="http://www.w3.org/2000/svg" xmlns:xlink="http://www.w3.org/1999/xlink" xmlns:svgjs="http://svgjs.com/svgjs" version="1.1" width="512" height="512" x="0" y="0" viewBox="0 0 510 510" style="enable-background:new 0 0 512 512" xml:space="preserve"><g><g xmlns="http://www.w3.org/2000/svg"><path d="m150 60h60v30h105c24.814 0 45-20.188 45-45s-20.186-45-45-45h-105v30h-90v60h30z" fill="#ffffff" data-original="#000000" style=""/><path d="m105 360h210v30h-210z" fill="#ffffff" data-original="#000000" style=""/><path d="m0 150h30v150h-30z" fill="#ffffff" data-original="#000000" style=""/><path d="m195 420h30v90h-30z" fill="#ffffff" data-original="#000000" style=""/><path d="m227.975 420 42.025 50.431v39.569h30v-50.431l-32.975-39.569z" fill="#ffffff" data-original="#000000" style=""/><path d="m120 459.569v50.431h30v-39.569l42.025-50.431h-39.05z" fill="#ffffff" data-original="#000000" style=""/><path d="m390 120h-330v210h330v-50.729l30 15v-138.541l-30 15zm-120 150h-150v-90h150zm60 0h-30v-30h30zm0-60h-30v-30h30z" fill="#ffffff" data-original="#000000" style=""/><path d="m150 210h90v30h-90z" fill="#ffffff" data-original="#000000" style=""/><path d="m480 90v35.729l-30 15v168.541l30 15v35.73h30c0-24.199 0-256.434 0-270z" fill="#ffffff" data-original="#000000" style=""/></g></g></svg>
