<?xml version="1.0"?>
<svg xmlns="http://www.w3.org/2000/svg" xmlns:xlink="http://www.w3.org/1999/xlink" xmlns:svgjs="http://svgjs.com/svgjs" version="1.1" width="512" height="512" x="0" y="0" viewBox="0 0 512.103 512.103" style="enable-background:new 0 0 512 512" xml:space="preserve" class=""><g><g xmlns="http://www.w3.org/2000/svg"><path d="m497.103 415.303h-132.867c-6.424-20.87-25.883-36.083-48.832-36.083s-42.408 15.213-48.832 36.083h-251.572c-8.284 0-15 6.716-15 15s6.716 15 15 15h251.572c6.424 20.87 25.883 36.083 48.832 36.083s42.408-15.213 48.832-36.083h132.867c8.284 0 15-6.716 15-15s-6.716-15-15-15zm-181.699 36.083c-11.625 0-21.083-9.458-21.083-21.083s9.458-21.083 21.083-21.083 21.083 9.458 21.083 21.083-9.458 21.083-21.083 21.083z" fill="#ffffff" data-original="#000000" style="" class=""/><path d="m12.912 344.471 47.064 7.469c65.237 10.353 130.901 15.527 196.581 15.527 66.959 0 133.935-5.382 200.408-16.143l42.38-6.86c7.265-1.176 12.603-7.448 12.603-14.807v-283.94c0-4.41-1.94-8.597-5.306-11.447-3.365-2.85-7.812-4.075-12.165-3.349l-36.181 6.042c-131.876 22.02-265.661 22.331-397.637.922l-42.994-6.975c-4.342-.704-8.773.532-12.122 3.382-3.35 2.85-5.28 7.026-5.28 11.424v283.94c0 7.377 5.363 13.659 12.649 14.815zm17.351-281.125 25.592 4.152c135.211 21.933 272.274 21.616 407.382-.945l18.711-3.124v253.46l-29.777 4.82c-128.529 20.805-258.9 21.008-387.493.601l-34.415-5.461v-253.503z" fill="#ffffff" data-original="#000000" style="" class=""/><path d="m201.724 266.204c2.32 1.34 4.91 2.01 7.5 2.01s5.18-.67 7.5-2.01l93.764-54.135c4.641-2.679 7.5-7.631 7.5-12.99s-2.859-10.311-7.5-12.99l-93.764-54.135c-4.642-2.68-10.359-2.68-15 0-4.641 2.679-7.5 7.631-7.5 12.99v108.27c0 5.359 2.859 10.311 7.5 12.99zm22.5-95.279 48.764 28.154-48.764 28.154z" fill="#ffffff" data-original="#000000" style="" class=""/></g></g></svg>
